<svg width="43" height="37" viewBox="0 0 43 37" fill="none" xmlns="http://www.w3.org/2000/svg">
<path d="M38.849 9.41821H35.3154V13.9852L36.4282 13.1036C37.1617 12.5219 38.0776 13.6365 37.3243 14.2381L26.0079 23.1912L37.3243 32.1443C38.0595 32.726 37.1852 33.8551 36.4282 33.2788L24.8446 24.1088L21.5494 26.7175C21.2893 26.9307 20.9135 26.9307 20.6534 26.7175L17.3582 24.1088L5.7745 33.2788C5.03019 33.8389 4.12873 32.755 4.87845 32.1443L16.1948 23.1912L4.87845 14.2381C4.1432 13.651 5.01575 12.511 5.7745 13.1036L6.88732 13.9852V9.41821H3.35371C1.58329 9.41821 0.145264 10.8562 0.145264 12.6267V33.749C0.145264 35.5194 1.58329 36.9646 3.35371 36.9646H38.8489C40.6193 36.9646 42.0573 35.5194 42.0573 33.749V12.6267C42.0573 10.8562 40.6195 9.41821 38.849 9.41821Z" fill="white"/>
<path d="M21.5422 8.84692C19.5098 8.90112 19.5171 11.8602 21.5422 11.9181C23.5583 11.8639 23.5655 8.89932 21.5422 8.84692Z" fill="white"/>
<path d="M21.1015 25.229C23.2386 23.5453 33.4274 15.479 33.87 15.1266C33.87 15.1266 33.8718 3.45967 33.87 2.41586C33.87 1.24523 32.9234 0.298584 31.7527 0.298584H10.4501C9.27945 0.298584 8.3328 1.24523 8.3328 2.41586C8.32015 3.49981 8.3328 15.1266 8.3328 15.1266C8.7754 15.4735 18.9338 23.5215 21.1015 25.229ZM27.6844 10.7909C27.7313 12.8214 25.0883 13.8783 23.7316 12.3951C21.9738 14.3877 18.525 13.0689 18.5574 10.379C18.5574 8.73862 19.9015 7.40179 21.5418 7.40179C22.1705 7.40179 22.7558 7.5969 23.2327 7.92929C23.37 7.76308 23.5724 7.66192 23.7964 7.66192C24.2011 7.66192 24.519 7.9871 24.519 8.38454V10.7909C24.5985 12.0519 26.396 11.8477 26.2389 10.5958C25.9209 3.05181 15.1413 4.36848 16.5268 11.6508C17.132 14.6045 20.6946 16.1924 23.3558 14.917C23.7171 14.7508 24.1507 14.9098 24.3169 15.2711C24.8679 16.8771 20.8031 16.9476 19.8511 16.6441C15.0274 15.6685 13.3061 9.33648 16.7655 5.94929C20.8826 1.8177 27.8559 4.85441 27.6844 10.7909Z" fill="white"/>
</svg>
