<svg xmlns="http://www.w3.org/2000/svg" version="1.1" viewBox="-5.0 -10.0 110.0 135.0">
 <path d="m61.785 50 23.273-23.273c3.2539-3.2539 3.2539-8.5312 0-11.785s-8.5273-3.2539-11.785 0l-23.273 23.273-23.273-23.273c-3.25-3.2539-8.5312-3.2539-11.785 0s-3.2539 8.5312 0 11.785l23.273 23.273-23.273 23.273c-3.2539 3.2539-3.2539 8.5273 0 11.785 1.625 1.6289 3.7617 2.4414 5.8906 2.4414 2.1328 0 4.2656-0.8125 5.8906-2.4414l23.277-23.273 23.273 23.273c1.6289 1.6289 3.7617 2.4414 5.8906 2.4414 2.1328 0 4.2656-0.8125 5.8906-2.4414 3.2539-3.2539 3.2539-8.5273 0-11.785z"/>
</svg>
