<svg width="99" height="69" viewBox="0 0 99 69" fill="none" xmlns="http://www.w3.org/2000/svg">
<path d="M98.9732 54.3518L97.6926 39.8868C97.4799 37.4586 95.8129 35.5377 93.6032 34.9003L92.4094 24.2552C92.3313 23.5268 91.7886 22.9978 91.1245 22.768L68.0386 16.7365C65.8116 16.2118 64.9651 19.4725 67.1617 20.0926L75.7659 22.343L48.3814 33.2352L6.89279 16.7278L48.3814 3.55497L89.8444 16.7278L88.8068 17.1397C86.6884 18.0286 87.9646 21.1636 90.0874 20.3657L93.2652 19.104V20.2097C93.2912 22.4861 96.7078 22.4861 96.7381 20.2097V16.55C96.7338 15.9212 96.3561 15.3142 95.7917 15.028C95.6225 14.8285 49.141 0.211177 48.9032 0.0813024C48.5602 -0.0271008 48.1912 -0.0271008 47.8526 0.0813024C47.6269 0.224398 1.11075 14.8193 0.950719 15.0236C0.386369 15.3097 0.00434534 15.9168 0 16.5455V22.7028C0 23.4139 0.434112 24.0513 1.09398 24.3115L17.1128 30.6856L13.6964 51.9628C12.9019 56.9234 15.728 61.8231 20.4165 63.6182C38.8103 70.6557 57.3508 70.9072 75.5235 63.6876C80.1207 61.8578 82.8774 56.984 82.0873 52.1055L78.7055 31.0491L89.2067 26.8735L90.1184 34.9993C88.0693 35.7278 86.5543 37.5793 86.3546 39.8904L85.0697 54.5074C84.5835 59.4896 99.6993 59.5025 98.9748 54.3556L98.9732 54.3518ZM77.6966 46.6725C76.9022 48.008 75.7039 49.0704 74.2366 49.6601C57.1976 56.4288 39.5028 56.4027 21.6569 49.569C20.1375 48.988 18.9002 47.9039 18.0885 46.5164L18.4314 44.383C37.402 52.873 58.5697 53.1332 77.3503 44.5218L77.6932 46.6681L77.6966 46.6725ZM74.2366 60.4703C57.1976 67.239 39.5073 67.2129 21.6602 60.3836C18.4955 59.1739 16.5897 55.8654 17.1237 52.518L17.3712 50.9873C18.2742 51.7505 19.29 52.3835 20.4187 52.8128C29.7913 56.4031 39.1292 58.1939 48.3667 58.1939C57.5396 58.1939 66.6171 56.4204 75.5334 52.8821C76.597 52.4529 77.5521 51.8415 78.4116 51.1174L78.659 52.661C79.193 55.9521 77.335 59.2389 74.2397 60.4704L74.2366 60.4703ZM76.7198 40.5939C60.9266 49.8038 39.1432 48.8801 21.6651 42.1939C20.671 41.808 19.7897 41.2096 19.0604 40.4552L20.4192 32.0041C20.9358 32.1775 22.7505 33.0448 23.267 33.0057C25.1337 33.0404 25.6721 30.3347 23.9095 29.6626L3.47084 21.5325V19.1086L47.7333 36.7216C47.9373 36.804 48.1587 36.8473 48.3758 36.8473C48.5928 36.8473 48.8143 36.8083 49.0183 36.7216L81.425 23.8351L85.0715 24.7891L48.375 39.3883L30.2291 32.1687C29.3391 31.8088 28.3277 32.2468 27.9717 33.1357C27.6157 34.0246 28.0499 35.0348 28.9441 35.3904L47.7325 42.8658C47.9408 42.9482 48.1579 42.9916 48.375 42.9916C48.592 42.9916 48.8091 42.9526 49.0174 42.8658L75.394 32.3725L76.7137 40.6025L76.7198 40.5939ZM88.5756 54.1964L89.8172 40.191C90.0646 37.4723 93.9891 37.4679 94.2365 40.191L95.4781 54.1964C94.2279 54.9248 89.826 54.9248 88.58 54.1964H88.5756Z" fill="#53A23C"/>
</svg>
