<svg width="84" height="81" viewBox="0 0 84 81" fill="none" xmlns="http://www.w3.org/2000/svg">
<path d="M3.6604 19.125C3.53931 19.4961 3.67212 19.8984 3.98852 20.125C4.14086 20.2344 4.32446 20.2929 4.51196 20.2969C4.69946 20.2929 4.88696 20.2344 5.0393 20.125L10.5081 16.125L15.9769 20.125H15.9808C16.2933 20.3476 16.7152 20.3437 17.0277 20.1211C17.3402 19.8945 17.473 19.4922 17.3597 19.125L15.2503 12.6836L20.7386 8.68358C21.0629 8.46092 21.1996 8.05077 21.0785 7.67968C20.9574 7.30468 20.6019 7.05468 20.2113 7.0664H13.4418L11.3637 0.625H11.3598C11.2465 0.25391 10.8988 0 10.5121 0C10.1215 0 9.77775 0.25391 9.66056 0.625L7.66056 7.125H0.891057C0.504337 7.12891 0.164497 7.37891 0.0433971 7.74609C-0.0737929 8.11328 0.0512102 8.51562 0.359807 8.74609L5.84811 12.7461L3.6604 19.125ZM3.6604 8.85498H8.262C8.64872 8.85498 8.99247 8.60498 9.10966 8.23389L10.5394 3.80419L11.9691 8.23389C12.0901 8.60498 12.4339 8.85498 12.8206 8.85498H17.469L13.6604 11.5855C13.3479 11.812 13.219 12.2183 13.3401 12.5855L14.7815 17.0074L11.0315 14.2691V14.2652C10.8792 14.1519 10.6917 14.0894 10.5003 14.0933C10.3088 14.0933 10.1253 14.1519 9.96901 14.2652L6.26201 17.0035L7.66041 12.5855C7.7815 12.2183 7.65259 11.812 7.3401 11.5855L3.6604 8.85498ZM18.6604 62.855H14.4416C14.5119 62.5581 14.551 62.2573 14.551 61.9526C14.551 59.8823 12.8713 58.2026 10.801 58.2026C8.73068 58.2026 7.05098 59.8823 7.05098 61.9526C7.05098 62.2573 7.08613 62.5581 7.16036 62.855H3.01976C2.78148 62.8511 2.55492 62.9448 2.38304 63.1128C2.21507 63.2808 2.12132 63.5073 2.12132 63.7456V79.3436C2.12132 79.5819 2.21507 79.8123 2.38304 79.9764C2.55492 80.1444 2.78148 80.2381 3.01976 80.2342H18.5818C18.8161 80.2381 19.0466 80.1444 19.2146 79.9764C19.3864 79.8123 19.4802 79.5819 19.4802 79.3436V73.785C19.4763 73.4412 19.281 73.1288 18.9685 72.9764C18.6599 72.828 18.2888 72.8709 18.0192 73.0858C17.4255 73.5272 16.6364 73.6014 15.9684 73.285C15.3005 72.9647 14.8629 72.3045 14.8317 71.5662C14.8591 70.824 15.2927 70.16 15.9645 69.8396C16.6325 69.5154 17.4254 69.5935 18.0192 70.0349C18.2888 70.2498 18.656 70.2888 18.9646 70.1443C19.2731 69.9959 19.4763 69.6873 19.4802 69.3435V63.7732C19.4802 63.5388 19.3864 63.3084 19.2146 63.1404C19.0466 62.9763 18.8161 62.8826 18.5817 62.8865L18.6604 62.855ZM17.7698 67.855C17.4768 67.7808 17.1721 67.7456 16.8713 67.7456C15.844 67.6909 14.8401 68.062 14.094 68.769C13.3479 69.4799 12.926 70.4604 12.926 71.4878C12.926 72.519 13.3479 73.4995 14.094 74.2105C14.8401 74.9175 15.844 75.2886 16.8713 75.2339C17.1721 75.2378 17.4768 75.2026 17.7698 75.1362V78.3745H3.91078V64.6755H8.58268C8.92643 64.6716 9.23893 64.4763 9.38737 64.1638C9.53581 63.8513 9.49675 63.4841 9.2819 63.2146C8.99284 62.8708 8.83659 62.4333 8.84049 61.9841C9.0319 61.0544 9.84829 60.3825 10.8014 60.3825C11.7506 60.3825 12.5709 61.0544 12.7623 61.9841C12.7623 62.4333 12.606 62.8708 12.3209 63.2146C12.106 63.4841 12.0631 63.8513 12.2154 64.1638C12.3638 64.4763 12.6763 64.6716 13.0201 64.6755H17.6607L17.7698 67.855ZM46.8718 60.355L41.5007 58.9136C41.1765 58.8511 40.8405 58.9722 40.6335 59.23C40.4225 59.4878 40.3718 59.8394 40.5007 60.1441C40.6843 60.5503 40.7194 61.0073 40.6022 61.4331C40.5749 62.0386 40.2741 62.5973 39.7858 62.9566C39.2975 63.312 38.6764 63.4292 38.0905 63.2769C37.5085 63.1206 37.0241 62.7104 36.778 62.1597C36.5319 61.6089 36.5476 60.9722 36.821 60.4331C36.9343 60.0034 37.196 59.6206 37.5593 59.3628C37.8327 59.1557 37.9655 58.812 37.9108 58.476C37.8444 58.1362 37.5905 57.8667 37.2624 57.7729L31.7624 56.394C31.5319 56.3315 31.2858 56.3628 31.0788 56.48C30.8718 56.5971 30.7233 56.7925 30.6608 57.0229L29.5905 61.0229C29.3288 60.8745 29.0437 60.7612 28.7507 60.6831C26.7819 60.23 24.8093 61.4175 24.2859 63.3667C23.7625 65.3198 24.8796 67.3355 26.8093 67.9253C27.1023 68.0034 27.407 68.0464 27.7116 68.0464L26.6335 72.0464H26.6296C26.571 72.2729 26.6023 72.5151 26.7234 72.7183C26.8445 72.9214 27.0398 73.0698 27.2703 73.1245L42.2703 77.1245H42.5007C42.907 77.1245 43.2624 76.855 43.3718 76.4643L47.3718 61.4643C47.4343 61.2378 47.3992 60.9956 47.282 60.7964C47.1648 60.6167 46.9929 60.4839 46.7898 60.4253L46.8718 60.355ZM41.8991 75.226L28.5901 71.6635L29.801 67.1244C29.8635 66.8002 29.7424 66.4642 29.4846 66.2572C29.2268 66.0462 28.8752 65.9955 28.5705 66.1244C28.1603 66.3002 27.7033 66.3353 27.2697 66.2259C26.2424 65.9252 25.633 64.8665 25.8908 63.8236C26.0275 63.3236 26.3556 62.8979 26.801 62.6361C27.2502 62.3744 27.7892 62.3041 28.2893 62.4447C28.715 62.5385 29.094 62.7807 29.3596 63.1244C29.5588 63.4096 29.9064 63.5502 30.2463 63.4877C30.59 63.4252 30.8635 63.1713 30.9494 62.8354L32.1603 58.3237L35.3009 59.1635C35.1525 59.4291 35.0392 59.7104 34.9611 60.0033C34.5079 61.9721 35.6915 63.9486 37.6447 64.4681C39.5939 64.9916 41.6095 63.8744 42.1994 61.9447C42.2775 61.6518 42.3205 61.3471 42.3322 61.0463L45.4728 61.8979L41.8991 75.226ZM20.3721 43.296C20.0713 43.296 19.7705 43.3311 19.4814 43.4054V39.2531C19.4814 39.0148 19.3877 38.7882 19.2158 38.6202C19.0479 38.4523 18.8174 38.3624 18.583 38.3624H3.02102C2.78274 38.3624 2.55618 38.4523 2.3843 38.6202C2.21633 38.7882 2.12258 39.0148 2.12258 39.2531V54.8231C2.12258 55.3191 2.52492 55.7254 3.02102 55.7254H8.58352C8.92727 55.7254 9.24368 55.5262 9.39211 55.2137C9.54055 54.9012 9.49367 54.5301 9.27102 54.2645C8.82961 53.7645 8.66164 53.0809 8.82571 52.4325C8.99368 51.7879 9.47024 51.2684 10.0991 51.0458C10.728 50.8232 11.4272 50.9325 11.9624 51.3309C12.4937 51.7294 12.7944 52.3661 12.7632 53.034C12.7632 53.4832 12.6069 53.9168 12.3218 54.2645C12.1069 54.534 12.064 54.9012 12.2163 55.2137C12.3647 55.5223 12.6772 55.7215 13.021 55.7255H18.5835C19.0796 55.7255 19.4819 55.3192 19.4819 54.8231V50.6825C19.771 50.7567 20.0718 50.7919 20.3726 50.7958C22.4429 50.7958 24.1226 49.1161 24.1226 47.0458C24.1226 44.9716 22.4424 43.296 20.3721 43.296ZM20.3721 49.0069V49.003C19.9229 49.003 19.4893 48.8506 19.1416 48.5655C18.872 48.3467 18.5049 48.3038 18.1924 48.4561C17.8838 48.6045 17.6884 48.9209 17.6924 49.2647V53.9366L14.4424 53.9327C14.5127 53.6397 14.5478 53.3389 14.5517 53.0342C14.5517 50.9639 12.872 49.2842 10.8017 49.2842C8.73144 49.2842 7.05174 50.9639 7.05174 53.0342C7.05174 53.3389 7.0908 53.6397 7.16112 53.9327H3.91112V40.1237H17.6611V44.8229C17.6572 45.1705 17.8564 45.4869 18.1689 45.6354C18.4853 45.7838 18.8564 45.7369 19.1221 45.5143C19.4814 45.2408 19.9228 45.1041 20.3721 45.1237C21.3017 45.3112 21.9737 46.1315 21.9737 47.0846C21.9737 48.0338 21.3018 48.8541 20.3721 49.0455L20.3721 49.0069ZM62.1221 28.1239C62.4854 27.8973 62.6338 27.4403 62.4697 27.0458L57.122 13.5028C57.0048 13.202 56.7314 12.9872 56.4111 12.9442L42.7631 11.0028C40.0639 10.6239 37.0131 10.534 34.8529 12.7919L26.5443 21.5107C23.974 24.1904 22.9545 26.9013 23.4154 29.7802L24.1966 34.7802L21.1028 36.124C20.8802 36.2138 20.7083 36.3974 20.6302 36.624C20.5403 36.8427 20.5403 37.0849 20.6302 37.3037L22.8919 42.3818V42.3857C23.0325 42.6982 23.3411 42.9052 23.6849 42.9169C24.0325 42.9287 24.3528 42.7412 24.513 42.4326C24.9583 41.538 26.0208 41.1318 26.9505 41.5029C27.4349 41.6747 27.8294 42.038 28.0403 42.5029C28.4543 43.4911 28.0129 44.6318 27.0403 45.0849C26.6379 45.2724 26.1809 45.3075 25.7512 45.1825C25.4152 45.1005 25.0598 45.2138 24.8332 45.4755C24.6105 45.7372 24.5598 46.1005 24.7004 46.413L26.9504 51.5028C27.1574 51.9559 27.6887 52.159 28.1418 51.952L31.923 50.2723C31.9777 50.5692 32.0675 50.8582 32.1925 51.1356C32.8097 52.5145 34.1964 53.3934 35.7081 53.3544C37.2198 53.3192 38.5636 52.3739 39.1104 50.9638C39.4659 50.0458 39.4425 49.0263 39.0518 48.124C38.9268 47.8466 38.7667 47.5849 38.5831 47.3427L42.3722 45.663C42.8214 45.4638 43.0284 44.9365 42.8331 44.4833L40.6612 39.6122C41.2823 39.0224 41.88 38.4403 42.4307 37.8934C45.5205 34.8231 47.7588 32.6043 52.4817 32.534C54.22 32.5497 55.927 32.0575 57.3919 31.1238L62.1221 28.1239ZM40.8331 44.4329L36.5597 46.3235C36.2472 46.468 36.0401 46.7766 36.0323 47.1243C36.0245 47.468 36.2159 47.7883 36.5206 47.9446C36.9308 48.1555 37.2472 48.511 37.4112 48.9446C37.6105 49.4211 37.6105 49.9563 37.4112 50.4329C37.2276 50.9133 36.8722 51.304 36.4112 51.5227C35.9308 51.718 35.3917 51.718 34.9112 51.5227C34.4347 51.343 34.044 50.9836 33.8214 50.5227C33.6378 50.1203 33.6027 49.6633 33.7199 49.2336C33.8449 48.8937 33.7511 48.5109 33.4855 48.2687C33.216 48.0226 32.8292 47.9679 32.5011 48.1242L28.2394 50.0226L26.9191 47.0226H26.923C27.216 46.9718 27.5051 46.8859 27.7824 46.7648C28.7004 46.3585 29.423 45.6007 29.7785 44.6632C30.1379 43.7218 30.1027 42.6788 29.6808 41.7648C29.2824 40.8546 28.5324 40.1437 27.6066 39.7843C26.6809 39.4288 25.6496 39.4562 24.7394 39.8624C24.4621 39.9874 24.2004 40.1398 23.9621 40.3234L22.6418 37.3234L35.2438 31.7336L35.5836 32.5031C34.1461 34.0617 32.9781 35.8508 32.1305 37.7961C31.5446 38.8039 31.5446 40.0539 32.1305 41.0656L32.5915 41.8039C33.0446 42.5109 33.7673 43.0031 34.5915 43.1633C34.7907 43.1945 34.9899 43.214 35.193 43.214C35.8259 43.2179 36.443 43.0148 36.9508 42.6359C37.8024 42.0148 38.5524 41.3976 39.2711 40.7765L40.8331 44.4329ZM32.2393 28.3549L35.9581 25.2533H35.962C36.3604 24.8978 36.7432 24.5228 37.1026 24.1244C37.9112 23.2728 38.7315 22.3939 39.4737 22.5463L43.044 23.2963C40.9346 28.2963 39.3331 29.558 37.6534 30.8471L36.9815 31.3666L36.5128 30.2963C36.4151 30.0776 36.2354 29.9096 36.0167 29.8236C35.794 29.7377 35.5479 29.7455 35.3331 29.8432L30.6612 31.9252C30.6026 30.5541 31.1846 29.2338 32.2393 28.3549ZM52.4383 30.7455C46.9969 30.8236 44.2899 33.515 41.1573 36.6244H41.1612C39.5323 38.3236 37.7667 39.8861 35.88 41.2963C35.6026 41.4994 35.2511 41.5814 34.9112 41.515C34.5714 41.4525 34.2745 41.2494 34.0909 40.9525L33.6612 40.2142C33.5011 39.9642 33.3722 39.5541 33.7901 38.6751C35.7315 34.5854 37.212 33.4642 38.7901 32.2649C40.6885 30.8157 42.6612 29.2649 45.1612 22.9641C45.255 22.7181 45.2394 22.4446 45.1105 22.2141C44.9894 21.9798 44.7706 21.8079 44.5128 21.7532L39.8839 20.7532C38.1847 20.3938 36.8839 21.7532 35.8839 22.8626H35.88C35.5675 23.2142 35.2316 23.5501 34.88 23.8626L31.1612 26.9642C29.4815 28.3548 28.6534 30.5267 28.9815 32.683L25.9815 34.0228L25.2627 29.5033C24.9034 27.2025 25.7745 24.9916 27.9229 22.7338L36.2432 14.0229C37.833 12.351 40.2432 12.4331 42.6026 12.7729L55.6616 14.644L60.5522 26.984L56.4311 29.6129C55.2436 30.3785 53.853 30.7731 52.4428 30.7457L52.4383 30.7455ZM83.1683 17.7455L78.4808 4.49548C78.1214 3.47208 77.3206 2.67128 76.2972 2.31188C75.2777 1.9525 74.1488 2.0736 73.2308 2.64391L58.7388 11.5853C58.3716 11.8119 58.2192 12.2728 58.3794 12.6751L63.481 25.4451C64.0279 26.8006 65.3482 27.6912 66.8091 27.6951C67.2622 27.6951 67.7114 27.6053 68.1294 27.4334L81.1294 22.242V22.2459C82.9185 21.535 83.8169 19.535 83.1724 17.7264L83.1683 17.7455ZM80.4613 20.5853L67.4613 25.7767V25.7728C66.5394 26.136 65.5004 25.6907 65.1293 24.7728L60.3207 12.7138L74.1727 4.12397C74.6336 3.84272 75.1961 3.78413 75.7079 3.96381C76.2157 4.1435 76.618 4.54584 76.8017 5.05361L81.4814 18.3236C81.8017 19.2299 81.3519 20.2259 80.4613 20.5853ZM76.3988 14.9251C75.3246 14.9251 74.3519 15.5735 73.9418 16.5696C73.5316 17.5657 73.7621 18.7102 74.5238 19.468C75.2855 20.2297 76.43 20.4524 77.4261 20.0383C78.4183 19.6242 79.0628 18.6516 79.0589 17.5735C79.0589 16.8704 78.7816 16.1946 78.2816 15.6985C77.7816 15.1985 77.1058 14.9212 76.3988 14.9251ZM76.3988 18.4446C76.0472 18.4446 75.7308 18.2336 75.598 17.9055C75.4613 17.5813 75.5355 17.2063 75.7855 16.9602C76.0355 16.7102 76.4066 16.636 76.7347 16.7688C77.0589 16.9055 77.2699 17.2219 77.2699 17.5735C77.2699 17.804 77.18 18.0266 77.016 18.1907C76.8519 18.3508 76.6332 18.4446 76.3988 18.4446ZM74.9222 50.9136H68.1488L66.0707 44.4722V44.4761C65.9496 44.105 65.6058 43.855 65.2152 43.855C64.8285 43.855 64.4808 44.105 64.3597 44.4761L62.2816 50.9253H55.5121C55.1215 50.9214 54.7699 51.1714 54.6528 51.5425C54.5317 51.9136 54.6684 52.3198 54.9887 52.5464L60.4692 56.5464L58.3676 62.9761H58.3715C58.2543 63.3433 58.3832 63.7417 58.6918 63.9761C58.8442 64.0855 59.0317 64.144 59.2192 64.144C59.4106 64.1401 59.5942 64.0815 59.7504 63.9761L65.2192 59.9761L70.6801 63.9761C71.0004 64.1948 71.4223 64.1948 71.7387 63.9761C72.0473 63.7417 72.1762 63.3433 72.059 62.9761L69.9574 56.5464L75.4379 52.5464H75.4418C75.7621 52.3198 75.8989 51.9136 75.7778 51.5425C75.6606 51.1714 75.3129 50.9214 74.9223 50.9253L74.9222 50.9136ZM68.3831 55.4331H68.3792C68.0667 55.6635 67.9339 56.0659 68.0511 56.4331L69.5003 60.8433L65.7386 58.1245C65.5901 58.0151 65.4065 57.9565 65.219 57.9526C65.0198 57.9487 64.8245 58.0073 64.6604 58.1245L60.8987 60.8628L62.3479 56.4526H62.3518C62.469 56.0854 62.3362 55.683 62.0198 55.4526L58.2503 52.7338H62.8987C63.2932 52.7338 63.6409 52.476 63.762 52.1049L65.1917 47.683L66.6605 52.1244C66.7816 52.4994 67.1292 52.7533 67.5199 52.7533H72.1683L68.3831 55.4331Z" fill="#54A23D"/>
</svg>
