<svg width="38" height="38" viewBox="0 0 38 38" fill="none" xmlns="http://www.w3.org/2000/svg">
<g clip-path="url(#clip0_16_7)">
<path d="M34.8571 0H3.1619C1.40952 0 0 1.42571 0 3.15558V34.8444C0 36.5933 1.42857 38 3.1619 38H34.8381C36.5905 38 38 36.5743 38 34.8444V3.15558C38.019 1.42571 36.6095 0 34.8571 0ZM11.2571 31.3467H5.63809V14.5043H11.2571V31.3467ZM8.43809 12.4702C6.66667 12.4702 5.23809 11.0445 5.23809 9.27664C5.23809 7.50875 6.66667 6.08304 8.43809 6.08304C10.2095 6.08304 11.6381 7.50875 11.6381 9.27664C11.6381 11.0445 10.2095 12.4702 8.43809 12.4702ZM32.4 31.3467H26.7619L26.6286 21.3477C26.6286 21.3477 26.7619 18.6863 23.8476 18.7054C20.9333 18.7244 20.5333 21.3477 20.5333 21.3477V31.3467H14.8571V14.5043H20.3048V16.8234C20.3048 16.8234 20.5333 16.063 21.7905 15.1696C23.0476 14.2761 25.1238 14.086 26.019 14.1241C26.9143 14.1621 28.1333 14.01 30.1714 15.4167C32.3619 16.9185 32.419 20.8534 32.419 20.8534L32.4 31.3467Z" fill="#6EBB44"/>
</g>
<defs>
<clipPath id="clip0_16_7">
<rect width="38" height="38" fill="white"/>
</clipPath>
</defs>
</svg>
