<svg width="36" height="37" viewBox="0 0 36 37" fill="none" xmlns="http://www.w3.org/2000/svg">
<g clip-path="url(#clip0_18_42)">
<path d="M33.0226 0H2.99549C1.33534 0 0 1.38819 0 3.07254V33.9275C0 35.6303 1.35338 37 2.99549 37H33.0045C34.6647 37 36 35.6118 36 33.9275V3.07254C36.018 1.38819 34.6827 0 33.0226 0ZM10.6647 30.5218H5.34135V14.1226H10.6647V30.5218ZM7.99398 12.1421C6.31579 12.1421 4.96241 10.7539 4.96241 9.03252C4.96241 7.31116 6.31579 5.92296 7.99398 5.92296C9.67218 5.92296 11.0256 7.31116 11.0256 9.03252C11.0256 10.7539 9.67218 12.1421 7.99398 12.1421ZM30.6947 30.5218H25.3534L25.2271 20.7859C25.2271 20.7859 25.3534 18.1946 22.5925 18.2131C19.8316 18.2316 19.4526 20.7859 19.4526 20.7859V30.5218H14.0752V14.1226H19.2361V16.3807C19.2361 16.3807 19.4526 15.6403 20.6436 14.7704C21.8346 13.9005 23.8015 13.7154 24.6496 13.7524C25.4977 13.7894 26.6526 13.6413 28.5835 15.011C30.6586 16.4732 30.7128 20.3047 30.7128 20.3047L30.6947 30.5218Z" fill="white"/>
</g>
<defs>
<clipPath id="clip0_18_42">
<rect width="36" height="37" fill="white"/>
</clipPath>
</defs>
</svg>
