<svg xmlns="http://www.w3.org/2000/svg" data-name="Layer 1" viewBox="0 0 52.54 59.8375" x="0px" y="0px"><defs><style>
      .cls-1 {
        stroke-width: 0px;
      }
    </style></defs><g data-name="Group 11542"><g data-name="Path 7476"><path class="cls-1" d="m51.04,3H13.59c-.83,0-1.5-.67-1.5-1.5s.67-1.5,1.5-1.5h37.46c.83,0,1.5.67,1.5,1.5s-.67,1.5-1.5,1.5Z"/></g><g data-name="Path 7479"><path class="cls-1" d="m1.92,3h-.42c-.83,0-1.5-.67-1.5-1.5S.67,0,1.5,0h.42c.83,0,1.5.67,1.5,1.5s-.67,1.5-1.5,1.5Z"/></g><g data-name="Path 7477"><path class="cls-1" d="m51.04,25.43H13.59c-.83,0-1.5-.67-1.5-1.5s.67-1.5,1.5-1.5h37.46c.83,0,1.5.67,1.5,1.5s-.67,1.5-1.5,1.5Z"/></g><g data-name="Path 7480"><path class="cls-1" d="m1.92,25.43h-.42c-.83,0-1.5-.67-1.5-1.5s.67-1.5,1.5-1.5h.42c.83,0,1.5.67,1.5,1.5s-.67,1.5-1.5,1.5Z"/></g><g data-name="Path 7478"><path class="cls-1" d="m51.04,47.87H13.59c-.83,0-1.5-.67-1.5-1.5s.67-1.5,1.5-1.5h37.46c.83,0,1.5.67,1.5,1.5s-.67,1.5-1.5,1.5Z"/></g><g data-name="Path 7481"><path class="cls-1" d="m1.92,47.87h-.42c-.83,0-1.5-.67-1.5-1.5s.67-1.5,1.5-1.5h.42c.83,0,1.5.67,1.5,1.5s-.67,1.5-1.5,1.5Z"/></g></g><text x="0" y="62.87" fill="#000000" font-size="5px" font-weight="bold" font-family="'Helvetica Neue', Helvetica, Arial-Unicode, Arial, Sans-serif">Created by Smarty</text><text x="0" y="67.87" fill="#000000" font-size="5px" font-weight="bold" font-family="'Helvetica Neue', Helvetica, Arial-Unicode, Arial, Sans-serif">from the Noun Project</text></svg>