<svg width="35" height="37" viewBox="0 0 35 37" fill="none" xmlns="http://www.w3.org/2000/svg">
<path d="M9.06906 34.2622C11.6449 35.7446 14.5478 36.522 17.5 36.522C27.1478 36.522 35 28.3284 35 18.261C35 8.19364 27.1478 0 17.5 0C7.85217 0 0 8.19364 0 18.261C0 21.4948 0.816363 24.6603 2.37376 27.4455L0.146645 37L9.06906 34.2622ZM9.99833 9.72783C10.3689 9.3722 10.8504 9.18201 11.3536 9.18201H11.8867C12.592 9.18201 13.2202 9.64308 13.4599 10.3316L14.5497 13.4661C14.6508 13.7618 14.6012 14.0905 14.413 14.3386L13.5511 15.4613C13.2103 15.8996 13.1191 16.4992 13.3173 17.0223C14.3615 19.764 17.4664 21.691 19.0892 22.5388C19.6777 22.8448 20.3831 22.729 20.8488 22.2472L21.8018 21.2527C22.0297 21.0149 22.3705 20.9302 22.6796 21.0294L25.5705 21.9929C26.266 22.2265 26.7376 22.8985 26.7376 23.6594V24.4264C26.7376 24.9868 26.5236 25.5264 26.1431 25.9234C23.3275 28.8242 18.6552 26.6966 15.6279 24.7593C13.4464 23.3616 11.5442 21.5256 10.1294 19.2969C6.70546 13.9043 8.78571 10.8817 9.99833 9.72783Z" fill="white"/>
</svg>
